<svg xmlns="http://www.w3.org/2000/svg" width="924" zoomAndPan="magnify" viewBox="0 0 693 168" height="224" preserveAspectRatio="xMidYMid meet" xmlns:v="https://vecta.io/nano"><style><![CDATA[.B{clip-rule:nonzero}]]></style><defs><clipPath id="A"><path d="M198 23h146v68H198zm0 0" class="B"/></clipPath><clipPath id="B"><path d="M248.934 65.395c-.23 0-.629-.031-1.199-.086l-2.828-.086h-13.371c-1.453.027-2.168-.687-2.141-2.145v-5.699c-.027-1.453.688-2.168 2.141-2.141h25.707c1.461-.027 2.172.688 2.148 2.141v17.227c0 1.973-.504 3.613-1.5 4.926-1.859 2.457-4.461 4.656-7.801 6.598-5.227 3.031-11.113 4.543-17.652 4.543-9.512 0-17.555-3.27-24.125-9.812-6.539-6.57-9.809-14.496-9.809-23.777s3.27-17.211 9.809-23.781c6.57-6.543 14.5-9.812 23.781-9.812 7.113 0 13.711 2.027 19.797 6.086 1.344.883 2.012 1.656 2.012 2.313 0 .398-.227.871-.684 1.414l-3.812 4.543c-.516.629-1.059.941-1.629.941-.344 0-.758-.172-1.242-.516-4.258-2.996-9.086-4.496-14.484-4.496-6.367 0-11.84 2.27-16.41 6.813-4.57 4.57-6.855 10.066-6.855 16.496 0 6.398 2.273 11.867 6.813 16.41 4.656 4.656 10.383 6.984 17.18 6.984 7.059 0 12.441-2.156 16.156-6.473zm55.574 6.168h-29.309c-.113 0-.172.043-.172.129 0 1.398.785 3.07 2.355 5.012 2.543 3.172 6.113 4.758 10.715 4.758 3.426 0 6.723-.742 9.895-2.227 1-.457 1.656-.687 1.973-.687.656 0 1.211.414 1.672 1.242l1.926 3.602c.285.512.426.914.426 1.199 0 .656-.453 1.285-1.371 1.883-4.539 2.801-9.523 4.199-14.949 4.199-6.602 0-12.086-2.172-16.457-6.512-4.34-4.371-6.512-9.77-6.512-16.195 0-6.398 2.172-11.77 6.512-16.113 4.176-4.227 9.344-6.34 15.516-6.34 5.68 0 10.336 1.816 13.965 5.441 4.027 4 6.039 9.313 6.039 15.941 0 .883-.012 1.684-.039 2.398l-.043.344c0 1.371-.715 2.012-2.141 1.926zm-29.266-7.539h21.25c.113 0 .172-.203.172-.602 0-1.742-.684-3.457-2.059-5.141-2.055-2.543-4.797-3.812-8.227-3.812-3.941 0-7.152 1.656-9.637 4.969-1.145 1.516-1.715 2.926-1.715 4.242 0 .227.07.344.215.344zm46.746-17.57V35.527c-.031-1.457.684-2.168 2.141-2.141h5.441c1.457-.027 2.168.684 2.145 2.141v10.926h9.211c1.457-.027 2.168.688 2.141 2.145v4.5c.027 1.457-.684 2.168-2.141 2.141h-9.211v32.605c.023 1.457-.687 2.172-2.145 2.145h-5.441c-1.457.027-2.172-.687-2.141-2.145V55.238h-9.344c-1.453.027-2.168-.684-2.141-2.141v-4.5c-.027-1.457.688-2.172 2.141-2.145zm0 0" class="B"/></clipPath><linearGradient x1="196.524" y1="28.113" x2="343.04" gradientUnits="userSpaceOnUse" y2="90.801" id="C"><stop stop-color="rgb(83.099365%, 44.699097%, 97.999573%)" offset="0"/><stop stop-color="rgb(83.099365%, 44.699097%, 97.999573%)" offset=".281"/><stop stop-color="rgb(82.99408%, 44.541931%, 98.008728%)" offset=".297"/><stop stop-color="rgb(82.493591%, 43.789673%, 98.052979%)" offset=".301"/><stop stop-color="rgb(82.098389%, 43.196106%, 98.088074%)" offset=".305"/><stop stop-color="rgb(81.70166%, 42.601013%, 98.121643%)" offset=".309"/><stop stop-color="rgb(81.306458%, 42.007446%, 98.156738%)" offset=".313"/><stop stop-color="rgb(80.911255%, 41.412354%, 98.191833%)" offset=".316"/><stop stop-color="rgb(80.516052%, 40.818787%, 98.226929%)" offset=".32"/><stop stop-color="rgb(80.119324%, 40.223694%, 98.262024%)" offset=".324"/><stop stop-color="rgb(79.724121%, 39.630127%, 98.297119%)" offset=".328"/><stop stop-color="rgb(79.328918%, 39.035034%, 98.330688%)" offset=".332"/><stop stop-color="rgb(78.933716%, 38.441467%, 98.365784%)" offset=".336"/><stop stop-color="rgb(78.536987%, 37.846375%, 98.400879%)" offset=".34"/><stop stop-color="rgb(78.141785%, 37.252808%, 98.435974%)" offset=".344"/><stop stop-color="rgb(77.746582%, 36.657715%, 98.471069%)" offset=".348"/><stop stop-color="rgb(77.351379%, 36.064148%, 98.506165%)" offset=".352"/><stop stop-color="rgb(76.954651%, 35.469055%, 98.539734%)" offset=".355"/><stop stop-color="rgb(76.559448%, 34.875488%, 98.574829%)" offset=".359"/><stop stop-color="rgb(76.16272%, 34.280396%, 98.609924%)" offset=".363"/><stop stop-color="rgb(75.767517%, 33.686829%, 98.64502%)" offset=".367"/><stop stop-color="rgb(75.372314%, 33.091736%, 98.680115%)" offset=".371"/><stop stop-color="rgb(74.977112%, 32.498169%, 98.71521%)" offset=".375"/><stop stop-color="rgb(74.580383%, 31.903076%, 98.748779%)" offset=".379"/><stop stop-color="rgb(74.185181%, 31.309509%, 98.783875%)" offset=".383"/><stop stop-color="rgb(73.789978%, 30.714417%, 98.81897%)" offset=".387"/><stop stop-color="rgb(73.394775%, 30.12085%, 98.854065%)" offset=".391"/><stop stop-color="rgb(72.998047%, 29.525757%, 98.88916%)" offset=".395"/><stop stop-color="rgb(72.602844%, 28.93219%, 98.924255%)" offset=".398"/><stop stop-color="rgb(72.207642%, 28.337097%, 98.959351%)" offset=".402"/><stop stop-color="rgb(71.812439%, 27.74353%, 98.994446%)" offset=".406"/><stop stop-color="rgb(71.41571%, 27.148438%, 99.028015%)" offset=".41"/><stop stop-color="rgb(71.020508%, 26.554871%, 99.06311%)" offset=".414"/><stop stop-color="rgb(70.623779%, 25.959778%, 99.098206%)" offset=".418"/><stop stop-color="rgb(70.228577%, 25.366211%, 99.133301%)" offset=".422"/><stop stop-color="rgb(69.833374%, 24.771118%, 99.168396%)" offset=".426"/><stop stop-color="rgb(69.438171%, 24.177551%, 99.203491%)" offset=".43"/><stop stop-color="rgb(69.041443%, 23.582458%, 99.237061%)" offset=".434"/><stop stop-color="rgb(68.64624%, 22.988892%, 99.272156%)" offset=".438"/><stop stop-color="rgb(68.251038%, 22.393799%, 99.307251%)" offset=".441"/><stop stop-color="rgb(67.855835%, 21.800232%, 99.342346%)" offset=".445"/><stop stop-color="rgb(67.459106%, 21.205139%, 99.377441%)" offset=".449"/><stop stop-color="rgb(67.063904%, 20.611572%, 99.412537%)" offset=".453"/><stop stop-color="rgb(66.667175%, 20.016479%, 99.446106%)" offset=".457"/><stop stop-color="rgb(66.271973%, 19.422913%, 99.481201%)" offset=".461"/><stop stop-color="rgb(65.87677%, 18.82782%, 99.516296%)" offset=".465"/><stop stop-color="rgb(65.481567%, 18.234253%, 99.551392%)" offset=".469"/><stop stop-color="rgb(65.084839%, 17.63916%, 99.586487%)" offset=".473"/><stop stop-color="rgb(64.689636%, 17.045593%, 99.621582%)" offset=".477"/><stop stop-color="rgb(64.294434%, 16.4505%, 99.655151%)" offset=".48"/><stop stop-color="rgb(63.899231%, 15.856934%, 99.690247%)" offset=".484"/><stop stop-color="rgb(63.502502%, 15.261841%, 99.725342%)" offset=".488"/><stop stop-color="rgb(63.1073%, 14.668274%, 99.760437%)" offset=".492"/><stop stop-color="rgb(62.712097%, 14.073181%, 99.795532%)" offset=".496"/><stop stop-color="rgb(62.316895%, 13.479614%, 99.830627%)" offset=".5"/><stop stop-color="rgb(61.920166%, 12.884521%, 99.864197%)" offset=".504"/><stop stop-color="rgb(61.524963%, 12.290955%, 99.899292%)" offset=".508"/><stop stop-color="rgb(61.128235%, 11.695862%, 99.934387%)" offset=".512"/><stop stop-color="rgb(60.733032%, 11.102295%, 99.969482%)" offset=".516"/><stop stop-color="rgb(60.565186%, 10.850525%, 99.984741%)" offset=".52"/><stop stop-color="rgb(60.398865%, 10.598755%, 100%)" offset=".523"/></linearGradient><clipPath id="D"><path d="M348 28h202v63H348zm0 0" class="B"/></clipPath><clipPath id="E"><path d="M382.137 51.297c3.973-3.914 8.813-5.871 14.527-5.871 5.824 0 10.539 1.801 14.137 5.398 3.484 3.457 5.227 7.887 5.227 13.285v23.734c.031 1.457-.684 2.172-2.141 2.145h-5.355c-1.457.027-2.172-.687-2.141-2.145V64.707c0-2.598-.957-4.855-2.871-6.77-1.945-1.914-4.215-2.871-6.816-2.871-2.367 0-4.5.758-6.383 2.27-2.227 1.801-3.34 4.031-3.34 6.688v23.82c.027 1.457-.687 2.172-2.145 2.145h-5.355c-1.457.027-2.172-.687-2.145-2.145V64.707c0-2.629-.969-4.898-2.91-6.812-1.914-1.887-4.23-2.828-6.945-2.828-2.996 0-5.379.914-7.152 2.742-1.543 1.656-2.312 3.785-2.312 6.387v23.648c.027 1.457-.687 2.172-2.145 2.145h-5.355c-1.457.027-2.172-.687-2.141-2.145v-39.59c-.031-1.457.684-2.172 2.141-2.141h4.926c1.43-.059 2.145.598 2.145 1.969v.387c2.941-2.027 6.313-3.043 10.113-3.043 5.684 0 10.496 1.957 14.438 5.871zm63.414-5.871c6.109 0 11.367 2.199 15.77 6.598s6.594 9.715 6.594 15.941c0 6.34-2.211 11.727-6.641 16.152-4.398 4.371-9.711 6.555-15.937 6.555-6.312 0-11.668-2.215-16.07-6.641-4.422-4.398-6.637-9.742-6.637-16.023 0-6.199 2.184-11.512 6.555-15.941 4.398-4.426 9.855-6.641 16.367-6.641zm-.301 9.727c-3.543 0-6.57 1.258-9.082 3.77-2.484 2.488-3.73 5.5-3.73 9.043 0 3.656 1.273 6.742 3.813 9.254 2.488 2.484 5.516 3.727 9.086 3.727 3.598 0 6.641-1.242 9.125-3.727 2.543-2.512 3.816-5.586 3.816-9.211 0-3.543-1.246-6.57-3.73-9.086s-5.582-3.77-9.297-3.77zm63.586-5.441V30.688c-.031-1.457.684-2.172 2.141-2.141h5.355c1.457-.031 2.172.684 2.145 2.141v57.156c.027 1.457-.687 2.172-2.145 2.145h-5.098c-1.457.027-2.172-.687-2.145-2.145v-1.625c-4.055 2.969-8.469 4.453-13.238 4.453-6.285 0-11.641-2.215-16.066-6.641-4.457-4.43-6.684-9.754-6.684-15.98s2.227-11.555 6.684-15.984c4.426-4.426 9.77-6.641 16.023-6.641 4.602 0 8.941 1.43 13.027 4.285zm-13.156 5.355c-3.543 0-6.57 1.258-9.082 3.77-2.516 2.488-3.773 5.559-3.773 9.215s1.258 6.727 3.773 9.211c2.512 2.512 5.586 3.77 9.211 3.77 3.598 0 6.641-1.242 9.129-3.727 2.539-2.516 3.813-5.598 3.813-9.254 0-3.629-1.273-6.715-3.812-9.258-2.488-2.484-5.574-3.727-9.258-3.727zm30.25 26.48l3.73-2.398c.484-.316.91-.473 1.281-.473.516 0 1.102.355 1.758 1.07.973 1.027 2.129 1.543 3.473 1.543a3.88 3.88 0 0 0 2.785-1.113c.738-.742 1.113-1.629 1.113-2.656 0-1.629-1.059-3.258-3.172-4.887-.855-.656-2.57-1.711-5.141-3.168-4.828-2.715-7.242-6.441-7.242-11.184 0-3.715 1.227-6.801 3.684-9.254 2.402-2.402 5.355-3.602 8.871-3.602 3.285 0 6.27 1.344 8.953 4.027 1.258 1.285 1.887 2.301 1.887 3.043 0 .629-.371 1.188-1.113 1.672l-3.516 2.355c-.512.344-.941.516-1.285.516-.543 0-1.055-.285-1.539-.859-.828-.914-1.875-1.371-3.129-1.371-1.086 0-1.957.344-2.613 1.031-.656.625-.988 1.414-.988 2.355 0 1.227.832 2.426 2.488 3.598.656.488 2.07 1.371 4.242 2.656 5.883 3.484 8.824 8 8.824 13.543 0 3.598-1.199 6.609-3.598 9.039-2.457 2.426-5.484 3.641-9.086 3.641-3.824 0-7.109-1.414-9.855-4.242-1.309-1.371-1.969-2.426-1.969-3.168 0-.66.387-1.23 1.156-1.715zm0 0" class="B"/></clipPath><clipPath id="F"><path d="M554 26h138v82H554zm0 0" class="B"/></clipPath><clipPath id="G"><path d="M590.262 49.969v-1.715c-.031-1.457.684-2.172 2.141-2.141h4.844c1.453-.031 2.168.684 2.141 2.141v39.59c.027 1.457-.687 2.172-2.141 2.145h-4.844c-1.457.027-2.172-.687-2.141-2.145v-1.625c-4.168 2.969-8.656 4.453-13.453 4.453-6.258 0-11.602-2.215-16.023-6.641-4.43-4.43-6.645-9.754-6.645-15.98s2.215-11.555 6.645-15.984c4.422-4.426 9.75-6.641 15.98-6.641 4.742 0 9.238 1.516 13.496 4.543zm-13.625 5.098c-3.543 0-6.57 1.258-9.086 3.77s-3.77 5.586-3.77 9.215c0 3.656 1.258 6.727 3.77 9.211 2.516 2.512 5.586 3.77 9.215 3.77s6.699-1.258 9.211-3.77c2.516-2.484 3.77-5.555 3.77-9.211 0-3.629-1.254-6.699-3.77-9.215-2.484-2.512-5.598-3.77-9.34-3.77zm39.547 31.32v19.453c.027 1.457-.687 2.172-2.145 2.145h-5.437c-1.457.027-2.172-.687-2.145-2.145V48.254c-.027-1.457.688-2.172 2.145-2.141h5.098c1.457-.031 2.172.684 2.141 2.141v1.543c4.172-2.914 8.598-4.371 13.285-4.371 6.254 0 11.598 2.215 16.023 6.641s6.641 9.758 6.641 15.984-2.215 11.551-6.641 15.98-9.754 6.641-15.984 6.641c-4.652 0-8.98-1.43-12.98-4.285zm12.852-31.32c-3.539 0-6.566 1.258-9.082 3.77-2.512 2.488-3.77 5.559-3.77 9.215s1.258 6.727 3.77 9.211c2.516 2.512 5.586 3.77 9.211 3.77s6.699-1.258 9.215-3.77c2.516-2.484 3.77-5.555 3.77-9.211 0-3.629-1.254-6.699-3.77-9.215-2.488-2.512-5.598-3.77-9.344-3.77zm48.805 12.598l13.07 20.395c.195.316.297.586.297.816 0 .742-.457 1.113-1.367 1.113h-6.945c-1.254.027-2.227-.5-2.91-1.586L668.93 71.051c-.059-.059-.102-.086-.129-.086-.117 0-.172.055-.172.168v16.711c.027 1.457-.687 2.172-2.145 2.145h-5.352c-1.461.027-2.176-.687-2.145-2.145V28.418c-.031-1.457.684-2.172 2.145-2.145h5.352c1.457-.027 2.172.688 2.145 2.145v35.648c0 .113.055.168.172.168.027 0 .07-.027.129-.082l11.094-16.453c.715-1.059 1.715-1.586 3-1.586h6.898c.914 0 1.371.371 1.371 1.113 0 .199-.113.473-.344.813zm0 0" class="B"/></clipPath><linearGradient x1="554.536" y1="25.149" x2="702.029" gradientUnits="userSpaceOnUse" y2="78.114" id="H"><stop stop-color="rgb(44.699097%, 56.498718%, 97.999573%)" offset="0"/><stop stop-color="rgb(44.699097%, 56.498718%, 97.999573%)" offset=".375"/><stop stop-color="rgb(44.625854%, 56.474304%, 97.994995%)" offset=".406"/><stop stop-color="rgb(44.134521%, 56.306458%, 97.967529%)" offset=".41"/><stop stop-color="rgb(43.714905%, 56.163025%, 97.944641%)" offset=".414"/><stop stop-color="rgb(43.295288%, 56.019592%, 97.921753%)" offset=".418"/><stop stop-color="rgb(42.875671%, 55.87616%, 97.898865%)" offset=".422"/><stop stop-color="rgb(42.456055%, 55.732727%, 97.875977%)" offset=".426"/><stop stop-color="rgb(42.037964%, 55.589294%, 97.853088%)" offset=".43"/><stop stop-color="rgb(41.618347%, 55.445862%, 97.828674%)" offset=".434"/><stop stop-color="rgb(41.19873%, 55.302429%, 97.805786%)" offset=".438"/><stop stop-color="rgb(40.779114%, 55.158997%, 97.782898%)" offset=".441"/><stop stop-color="rgb(40.359497%, 55.015564%, 97.76001%)" offset=".445"/><stop stop-color="rgb(39.93988%, 54.872131%, 97.737122%)" offset=".449"/><stop stop-color="rgb(39.520264%, 54.728699%, 97.714233%)" offset=".453"/><stop stop-color="rgb(39.100647%, 54.58374%, 97.691345%)" offset=".457"/><stop stop-color="rgb(38.68103%, 54.440308%, 97.668457%)" offset=".461"/><stop stop-color="rgb(38.261414%, 54.296875%, 97.644043%)" offset=".465"/><stop stop-color="rgb(37.843323%, 54.153442%, 97.621155%)" offset=".469"/><stop stop-color="rgb(37.423706%, 54.01001%, 97.598267%)" offset=".473"/><stop stop-color="rgb(37.004089%, 53.866577%, 97.575378%)" offset=".477"/><stop stop-color="rgb(36.584473%, 53.723145%, 97.55249%)" offset=".48"/><stop stop-color="rgb(36.164856%, 53.579712%, 97.529602%)" offset=".484"/><stop stop-color="rgb(35.745239%, 53.436279%, 97.505188%)" offset=".488"/><stop stop-color="rgb(35.325623%, 53.292847%, 97.4823%)" offset=".492"/><stop stop-color="rgb(34.906006%, 53.149414%, 97.459412%)" offset=".496"/><stop stop-color="rgb(34.486389%, 53.005981%, 97.436523%)" offset=".5"/><stop stop-color="rgb(34.066772%, 52.862549%, 97.413635%)" offset=".504"/><stop stop-color="rgb(33.648682%, 52.719116%, 97.390747%)" offset=".508"/><stop stop-color="rgb(33.229065%, 52.575684%, 97.367859%)" offset=".512"/><stop stop-color="rgb(32.809448%, 52.432251%, 97.344971%)" offset=".516"/><stop stop-color="rgb(32.389832%, 52.288818%, 97.320557%)" offset=".52"/><stop stop-color="rgb(31.970215%, 52.145386%, 97.297668%)" offset=".523"/><stop stop-color="rgb(31.550598%, 52.001953%, 97.27478%)" offset=".527"/><stop stop-color="rgb(31.130981%, 51.858521%, 97.251892%)" offset=".531"/><stop stop-color="rgb(30.711365%, 51.715088%, 97.229004%)" offset=".535"/><stop stop-color="rgb(30.293274%, 51.571655%, 97.206116%)" offset=".539"/><stop stop-color="rgb(29.873657%, 51.428223%, 97.183228%)" offset=".543"/><stop stop-color="rgb(29.454041%, 51.28479%, 97.160339%)" offset=".547"/><stop stop-color="rgb(29.034424%, 51.141357%, 97.135925%)" offset=".551"/><stop stop-color="rgb(28.614807%, 50.997925%, 97.113037%)" offset=".555"/><stop stop-color="rgb(28.19519%, 50.854492%, 97.090149%)" offset=".559"/><stop stop-color="rgb(27.775574%, 50.71106%, 97.067261%)" offset=".563"/><stop stop-color="rgb(27.355957%, 50.567627%, 97.044373%)" offset=".566"/><stop stop-color="rgb(26.93634%, 50.424194%, 97.021484%)" offset=".57"/><stop stop-color="rgb(26.516724%, 50.280762%, 96.99707%)" offset=".574"/><stop stop-color="rgb(26.098633%, 50.137329%, 96.974182%)" offset=".578"/><stop stop-color="rgb(25.679016%, 49.993896%, 96.951294%)" offset=".582"/><stop stop-color="rgb(25.259399%, 49.850464%, 96.928406%)" offset=".586"/><stop stop-color="rgb(24.839783%, 49.707031%, 96.905518%)" offset=".59"/><stop stop-color="rgb(24.420166%, 49.563599%, 96.882629%)" offset=".594"/><stop stop-color="rgb(24.000549%, 49.420166%, 96.859741%)" offset=".598"/><stop stop-color="rgb(23.580933%, 49.276733%, 96.836853%)" offset=".602"/><stop stop-color="rgb(23.161316%, 49.133301%, 96.812439%)" offset=".605"/><stop stop-color="rgb(22.741699%, 48.989868%, 96.789551%)" offset=".609"/><stop stop-color="rgb(22.322083%, 48.846436%, 96.766663%)" offset=".613"/><stop stop-color="rgb(21.903992%, 48.703003%, 96.743774%)" offset=".617"/><stop stop-color="rgb(21.484375%, 48.55957%, 96.720886%)" offset=".621"/><stop stop-color="rgb(21.064758%, 48.416138%, 96.697998%)" offset=".625"/><stop stop-color="rgb(20.645142%, 48.272705%, 96.673584%)" offset=".629"/><stop stop-color="rgb(20.225525%, 48.129272%, 96.650696%)" offset=".633"/><stop stop-color="rgb(19.805908%, 47.984314%, 96.627808%)" offset=".637"/><stop stop-color="rgb(19.386292%, 47.840881%, 96.604919%)" offset=".641"/><stop stop-color="rgb(18.966675%, 47.697449%, 96.582031%)" offset=".645"/><stop stop-color="rgb(18.548584%, 47.554016%, 96.559143%)" offset=".648"/><stop stop-color="rgb(18.128967%, 47.410583%, 96.536255%)" offset=".652"/><stop stop-color="rgb(17.709351%, 47.267151%, 96.513367%)" offset=".656"/><stop stop-color="rgb(17.289734%, 47.123718%, 96.488953%)" offset=".66"/><stop stop-color="rgb(16.870117%, 46.980286%, 96.466064%)" offset=".664"/><stop stop-color="rgb(16.4505%, 46.836853%, 96.443176%)" offset=".668"/><stop stop-color="rgb(16.030884%, 46.69342%, 96.420288%)" offset=".672"/><stop stop-color="rgb(15.611267%, 46.549988%, 96.3974%)" offset=".676"/><stop stop-color="rgb(15.19165%, 46.406555%, 96.374512%)" offset=".68"/><stop stop-color="rgb(14.772034%, 46.263123%, 96.351624%)" offset=".684"/><stop stop-color="rgb(14.353943%, 46.11969%, 96.328735%)" offset=".688"/><stop stop-color="rgb(13.934326%, 45.976257%, 96.304321%)" offset=".691"/><stop stop-color="rgb(13.514709%, 45.832825%, 96.281433%)" offset=".695"/><stop stop-color="rgb(13.095093%, 45.689392%, 96.258545%)" offset=".699"/><stop stop-color="rgb(12.675476%, 45.545959%, 96.235657%)" offset=".703"/><stop stop-color="rgb(12.255859%, 45.402527%, 96.212769%)" offset=".707"/><stop stop-color="rgb(11.836243%, 45.259094%, 96.18988%)" offset=".711"/><stop stop-color="rgb(11.416626%, 45.115662%, 96.165466%)" offset=".715"/><stop stop-color="rgb(10.997009%, 44.972229%, 96.142578%)" offset=".719"/><stop stop-color="rgb(10.597229%, 44.8349%, 96.121216%)" offset=".723"/><stop stop-color="rgb(10.198975%, 44.699097%, 96.099854%)" offset=".727"/></linearGradient><clipPath id="I"><path d="M49.18 69.988h10.988v10.988H49.18zm0 0" class="B"/></clipPath><clipPath id="J"><path d="M54.676 69.988c-3.035 0-5.496 2.457-5.496 5.492a5.5 5.5 0 0 0 5.496 5.496c3.031 0 5.492-2.461 5.492-5.496s-2.461-5.492-5.492-5.492zm0 0" class="B"/></clipPath><clipPath id="K"><path d="M71 118.668h10.492v10.488H71zm0 0" class="B"/></clipPath><clipPath id="L"><path d="M76.246 118.668c-2.898 0-5.246 2.348-5.246 5.242s2.348 5.246 5.246 5.246a5.25 5.25 0 0 0 5.246-5.246 5.25 5.25 0 0 0-5.246-5.242zm0 0" class="B"/></clipPath></defs><path fill="#fff" d="M281.23 139.176c-1.926 0-3.656-.469-5.176-1.402-1.523-.965-2.734-2.27-3.645-3.906-.875-1.637-1.312-3.48-1.312-5.527s.438-3.891 1.313-5.531c.91-1.637 2.121-2.937 3.645-3.902s3.25-1.449 5.176-1.449c1.551 0 2.957.336 4.215 1.012 1.254.641 2.266 1.547 3.027 2.719.789 1.141 1.227 2.473 1.316 3.992v6.273c-.09 1.492-.516 2.824-1.273 3.992s-1.77 2.094-3.027 2.766c-1.258.645-2.676.965-4.258.965zm.66-3.73c1.316 0 2.457-.305 3.422-.922.996-.613 1.77-1.445 2.324-2.5.559-1.082.836-2.309.836-3.684 0-1.434-.293-2.676-.879-3.73-.559-1.055-1.332-1.887-2.324-2.5-.965-.617-2.105-.922-3.422-.922s-2.473.305-3.469.922-1.781 1.461-2.367 2.543c-.559 1.055-.832 2.27-.832 3.645 0 1.402.273 2.645.832 3.727.586 1.055 1.375 1.887 2.367 2.5 1.027.617 2.195.922 3.512.922zm10.309 3.293h-3.992v-5.617l.746-5.09-.746-5.047V107.41h3.992zm15.27.438c-2.043 0-3.887-.484-5.523-1.449a10.84 10.84 0 0 1-3.906-3.902c-.969-1.668-1.449-3.527-1.449-5.574 0-2.016.48-3.832 1.449-5.441a10.84 10.84 0 0 1 3.906-3.902c1.637-.965 3.48-1.449 5.523-1.449 2.02 0 3.848.484 5.484 1.449 1.668.934 2.984 2.223 3.953 3.859.961 1.641 1.445 3.469 1.445 5.484 0 2.047-.484 3.906-1.445 5.574a10.79 10.79 0 0 1-3.953 3.902c-1.637.965-3.465 1.449-5.484 1.449zm0-3.816c1.316 0 2.488-.309 3.512-.922s1.828-1.449 2.414-2.5c.586-1.082.875-2.312.875-3.687 0-1.344-.305-2.543-.918-3.598a6.32 6.32 0 0 0-2.414-2.457c-.996-.613-2.152-.922-3.469-.922s-2.484.309-3.508.922a6.32 6.32 0 0 0-2.414 2.457c-.582 1.055-.879 2.254-.879 3.598 0 1.375.297 2.605.879 3.688.586 1.051 1.391 1.887 2.414 2.5s2.195.922 3.508.922zm20.699 3.379l-8.246-20.844h4.125l5.965 16.234h-1.316l5.922-16.234h2.281l5.922 16.234h-1.316l5.969-16.234h4.125l-8.207 20.844h-2.324l-6.008-15.754h1.445l-6.055 15.754zm41.68 0v-12.156c0-1.578-.496-2.879-1.488-3.902s-2.285-1.535-3.863-1.535c-1.051 0-1.988.234-2.809.699s-1.461 1.113-1.93 1.934-.703 1.754-.703 2.805l-1.621-.918c0-1.582.348-2.984 1.051-4.215a7.59 7.59 0 0 1 2.941-2.895c1.258-.73 2.676-1.098 4.258-1.098s2.965.395 4.164 1.184c1.23.793 2.195 1.828 2.895 3.117.703 1.258 1.055 2.602 1.055 4.035v12.945zm-14.742 0v-20.844h3.949v20.844zm24.039 0V107.41h3.949v31.328zm19.246.438c-2.047 0-3.891-.484-5.527-1.449s-2.937-2.266-3.906-3.902c-.965-1.668-1.445-3.527-1.445-5.574 0-2.016.48-3.832 1.445-5.441.969-1.637 2.266-2.937 3.906-3.902s3.48-1.449 5.527-1.449c2.02 0 3.848.484 5.484 1.449 1.668.934 2.984 2.223 3.949 3.859s1.449 3.469 1.449 5.484c0 2.047-.484 3.906-1.449 5.574a10.75 10.75 0 0 1-3.949 3.902c-1.637.965-3.465 1.449-5.484 1.449zm0-3.816c1.316 0 2.488-.309 3.512-.922s1.828-1.449 2.414-2.5c.586-1.082.875-2.312.875-3.687 0-1.344-.305-2.543-.922-3.598-.582-1.051-1.387-1.871-2.41-2.457-.996-.613-2.152-.922-3.469-.922s-2.488.309-3.508.922a6.32 6.32 0 0 0-2.414 2.457c-.586 1.055-.879 2.254-.879 3.598 0 1.375.293 2.605.879 3.688.586 1.051 1.391 1.887 2.414 2.5s2.191.922 3.508.922zm24.191 3.816c-1.898 0-3.625-.469-5.176-1.402-1.551-.965-2.777-2.27-3.684-3.906-.879-1.637-1.32-3.48-1.32-5.527s.441-3.891 1.32-5.531c.906-1.637 2.121-2.937 3.641-3.902 1.551-.965 3.289-1.449 5.219-1.449 1.582 0 2.984.336 4.215 1.012a7.73 7.73 0 0 1 3.027 2.719c.758 1.141 1.184 2.473 1.273 3.992v6.273c-.09 1.492-.516 2.824-1.273 3.992-.73 1.172-1.727 2.094-2.984 2.766-1.227.645-2.645.965-4.258.965zm.66-3.73c1.961 0 3.539-.656 4.738-1.973 1.199-1.348 1.801-3.059 1.801-5.133 0-1.434-.281-2.676-.836-3.73-.523-1.082-1.285-1.918-2.281-2.5-.992-.617-2.148-.922-3.465-.922s-2.488.305-3.512.922c-.992.613-1.785 1.461-2.371 2.543-.555 1.055-.828 2.27-.828 3.645 0 1.402.273 2.645.828 3.727.586 1.055 1.395 1.887 2.418 2.5s2.191.922 3.508.922zm6.273 3.293v-5.617l.746-5.09-.746-5.047v-5.09h3.992v20.844zm18.563.438c-1.93 0-3.656-.469-5.18-1.402-1.52-.965-2.734-2.27-3.641-3.906-.875-1.637-1.316-3.48-1.316-5.527s.441-3.891 1.316-5.531c.906-1.637 2.121-2.937 3.641-3.902s3.25-1.449 5.18-1.449c1.551 0 2.953.336 4.211 1.012 1.258.641 2.27 1.547 3.027 2.719.789 1.141 1.23 2.473 1.316 3.992v6.273c-.086 1.492-.512 2.824-1.273 3.992s-1.77 2.094-3.027 2.766c-1.258.645-2.676.965-4.254.965zm.656-3.73c1.316 0 2.457-.305 3.422-.922.996-.613 1.77-1.445 2.324-2.5.559-1.082.836-2.309.836-3.684 0-1.434-.293-2.676-.875-3.73a6.38 6.38 0 0 0-2.328-2.5c-.965-.617-2.105-.922-3.422-.922s-2.473.305-3.469.922-1.781 1.461-2.367 2.543c-.555 1.055-.832 2.27-.832 3.645 0 1.402.277 2.645.832 3.727.586 1.055 1.375 1.887 2.367 2.5 1.027.617 2.199.922 3.512.922zm10.313 3.293h-3.996v-5.617l.75-5.09-.75-5.047V107.41h3.996zm0 0"/><path fill="#d1d1d1" d="M494.586 138.738l-14.566-15.621c-1.141-1.227-1.988-2.398-2.547-3.508s-.832-2.34-.832-3.687c0-1.551.367-2.926 1.098-4.125.73-1.227 1.738-2.191 3.027-2.895 1.285-.73 2.766-1.098 4.43-1.098 1.23 0 2.34.203 3.336.613 1.023.383 1.914.895 2.676 1.539.789.641 1.449 1.371 1.977 2.191l-2.855 2.59c-.672-.937-1.414-1.684-2.234-2.238-.793-.586-1.754-.879-2.898-.879-1.312 0-2.41.395-3.289 1.188s-1.316 1.813-1.316 3.07c0 1.051.219 1.945.656 2.676s1.102 1.578 1.977 2.543l16.191 17.641zm-10.926.438c-2.016 0-3.785-.395-5.309-1.184s-2.703-1.875-3.555-3.246c-.816-1.406-1.227-3-1.227-4.785 0-1.84.496-3.508 1.492-5s2.441-2.676 4.344-3.555l1.887 2.457c-1.172.586-2.09 1.391-2.766 2.414-.672.992-1.008 2.191-1.008 3.598 0 1.141.262 2.121.789 2.938s1.258 1.465 2.191 1.934c.969.438 2.066.656 3.293.656 1.551 0 2.867-.32 3.949-.965s1.898-1.461 2.457-2.457l2.586 3.027c-.586.789-1.359 1.508-2.324 2.148-.937.617-1.988 1.113-3.16 1.492a12.3 12.3 0 0 1-3.641.527zm0 0"/><path fill="#fff" d="M521.621 139.176c-2.074 0-3.945-.469-5.613-1.402-1.668-.965-2.988-2.27-3.949-3.906s-1.449-3.496-1.449-5.57c0-2.051.469-3.891 1.402-5.531.969-1.637 2.254-2.926 3.863-3.859 1.637-.965 3.465-1.449 5.484-1.449 1.93 0 3.625.438 5.09 1.316 1.492.879 2.645 2.094 3.465 3.641.848 1.551 1.273 3.309 1.273 5.266l-.047.965c-.027.324-.086.703-.172 1.141h-17.598v-3.289h15.488l-1.449 1.273c0-1.406-.246-2.59-.742-3.555-.496-.996-1.199-1.754-2.105-2.281-.91-.555-2.004-.836-3.293-.836-1.344 0-2.531.293-3.555.879a6 6 0 0 0-2.367 2.457c-.559 1.055-.832 2.297-.832 3.73 0 1.461.289 2.75.875 3.859.586 1.082 1.418 1.93 2.504 2.547 1.078.582 2.324.875 3.727.875 1.172 0 2.238-.203 3.203-.613a6.63 6.63 0 0 0 2.547-1.844l2.543 2.59c-.996 1.172-2.223 2.063-3.687 2.676-1.43.613-2.965.922-4.605.922zm28.613-.437v-12.156c0-1.578-.496-2.879-1.492-3.902s-2.281-1.535-3.859-1.535c-1.055 0-1.992.234-2.809.699s-1.461 1.113-1.93 1.934-.703 1.754-.703 2.805l-1.625-.918c0-1.582.352-2.984 1.051-4.215a7.59 7.59 0 0 1 2.941-2.895c1.262-.73 2.676-1.098 4.258-1.098s2.969.395 4.168 1.184c1.23.793 2.195 1.828 2.898 3.117.699 1.258 1.051 2.602 1.051 4.035v12.945zm-14.742 0v-20.844h3.949v20.844zm21.402 9.168c-1.344 0-2.469-.219-3.375-.656-.937-.441-1.773-1.07-2.504-1.887l2.547-2.59c.41.496.863.863 1.359 1.098.469.234 1.039.352 1.711.352.879 0 1.637-.277 2.281-.836.645-.523.969-1.328.969-2.414v-23.078h3.945v23.035c0 1.523-.32 2.793-.965 3.816s-1.492 1.801-2.543 2.328c-1.055.555-2.195.832-3.426.832zm5.004-34.18c-.703 0-1.289-.23-1.758-.699-.465-.5-.699-1.113-.699-1.844 0-.703.234-1.285.699-1.754.469-.5 1.055-.746 1.758-.746.73 0 1.332.246 1.797.746.469.469.703 1.051.703 1.754 0 .73-.234 1.344-.703 1.844-.465.469-1.066.699-1.797.699zm17.262 25.449c-2.047 0-3.891-.484-5.527-1.449s-2.941-2.266-3.906-3.902c-.961-1.668-1.445-3.527-1.445-5.574 0-2.016.484-3.832 1.445-5.441.965-1.637 2.27-2.937 3.906-3.902s3.48-1.449 5.527-1.449c2.02 0 3.848.484 5.484 1.449 1.668.934 2.984 2.223 3.949 3.859s1.449 3.469 1.449 5.484c0 2.047-.484 3.906-1.449 5.574a10.75 10.75 0 0 1-3.949 3.902c-1.637.965-3.465 1.449-5.484 1.449zm0-3.816c1.32 0 2.488-.309 3.512-.922s1.828-1.449 2.41-2.5c.586-1.082.883-2.312.883-3.687 0-1.344-.312-2.543-.922-3.598-.586-1.051-1.395-1.871-2.414-2.457-.996-.613-2.148-.922-3.469-.922s-2.484.309-3.508.922c-1.023.586-1.832 1.406-2.414 2.457s-.879 2.254-.879 3.598c0 1.375.293 2.605.879 3.688.582 1.051 1.391 1.887 2.414 2.5s2.191.922 3.508.922zm21.363 3.555l-9.039-21.02h4.387l6.711 16.457h-1.402l7.063-16.457h4.391l-9.742 21.02zm-5.969 8.555l6.145-12.594 2.191 4.039-3.945 8.555zm0 0"/><path fill="#36db85" d="M171.141 64.773h-49.09c-8.867 0-13.637 8.184-12.957 16.367 0 6.816 5.457 12.953 12.957 12.953h28.637c-1.363 11.59-18.41 35.457-29.32 19.773L86.594 47.73c-2.727-4.773-.684-10.91 4.773-13.637 11.59-5.457 27.273-4.773 38.184 1.363 6.137 3.406 12.953 2.727 17.727-2.047l3.41-3.41c15.68-20.453-26.594-30-42.273-30C75.684 0 48.41 19.773 36.82 48.41 32.727 57.957 30 68.867 30 79.094L2.727 80.457C1.363 80.457 0 81.82 0 83.184s1.363 2.727 2.727 2.727L30 84.547c.684 21.82 14.32 45.004 32.047 56.594l-15 23.184c-.684 1.363-.684 2.727.684 3.406s2.727 0 4.09-1.363l14.316-23.18c4.094 2.043 8.184 4.09 12.273 5.453 52.504 21.82 107.73-14.32 104.324-72.957.68-6.137-4.773-10.91-11.594-10.91zM51.82 81.82c3.012 0 5.453-2.441 5.453-5.453s-2.441-5.457-5.453-5.457a5.46 5.46 0 0 0-5.457 5.457 5.46 5.46 0 0 0 5.457 5.453zm30 41.594c0 3.012-2.441 5.453-5.453 5.453a5.46 5.46 0 0 1-5.457-5.453 5.46 5.46 0 0 1 5.457-5.457 5.46 5.46 0 0 1 5.453 5.457zm0 0"/><g clip-path="url(#A)"><g clip-path="url(#B)"><path fill="url(#C)" d="M198.504 23.488v67.184h144.59V23.488zm0 0"/></g></g><g clip-path="url(#D)"><g clip-path="url(#E)"><path fill="#fff" d="M348.344 28.516v62.156h200.938V28.516zm0 0"/></g></g><g clip-path="url(#F)"><g clip-path="url(#G)"><path fill="url(#H)" d="M554.141 26.246v81.766h137.152V26.246zm0 0"/></g></g><g clip-path="url(#I)"><g clip-path="url(#J)"><path fill="#fff" d="M49.18 69.988h10.988v10.988H49.18zm0 0"/></g></g><g clip-path="url(#K)"><g clip-path="url(#L)"><path fill="#fff" d="M71 118.668h10.492v10.488H71zm0 0"/></g></g></svg>